<?xml version="1.0" encoding="UTF-8"?>
<svg id="Layer_1" xmlns="http://www.w3.org/2000/svg" version="1.1" viewBox="0 0 720 248.58">
  <!-- Generator: Adobe Illustrator 29.4.0, SVG Export Plug-In . SVG Version: 2.1.0 Build 152)  -->
  <defs>
    <style>
      .st0 {
        fill: #c0607e;
      }
    </style>
  </defs>
  <g>
    <path class="st0" d="M254.05,122.22v9.5c2.78-4.33,5.22-7.21,7.31-8.63,2.09-1.42,4.11-2.13,6.05-2.13,1.67,0,3.01.52,4.01,1.55,1,1.03,1.5,2.49,1.5,4.37,0,2-.49,3.56-1.46,4.66-.97,1.11-2.15,1.66-3.52,1.66-1.58,0-2.96-.51-4.12-1.52-1.17-1.01-1.85-1.58-2.06-1.7-.3-.18-.64-.27-1.03-.27-.87,0-1.69.33-2.47.99-1.23,1.02-2.15,2.47-2.78,4.35-.96,2.9-1.43,6.1-1.43,9.59v9.64l.04,2.51c0,1.7.1,2.8.31,3.27.36.81.89,1.4,1.59,1.77.7.38,1.89.61,3.56.69v1.61h-22.64v-1.61c1.82-.15,3.06-.65,3.7-1.5.64-.85.96-3.1.96-6.75v-23.18c0-2.39-.12-3.92-.36-4.57-.3-.84-.73-1.45-1.3-1.84-.57-.39-1.57-.66-3-.81v-1.66h17.13Z"/>
    <path class="st0" d="M311.25,141.68h-23c.27,5.56,1.75,9.95,4.44,13.18,2.06,2.48,4.54,3.72,7.44,3.72,1.79,0,3.42-.5,4.89-1.5,1.46-1,3.03-2.8,4.71-5.4l1.52.99c-2.27,4.63-4.78,7.91-7.53,9.84-2.75,1.93-5.93,2.89-9.55,2.89-6.22,0-10.92-2.39-14.12-7.17-2.57-3.86-3.86-8.64-3.86-14.35,0-6.99,1.89-12.56,5.67-16.7,3.78-4.14,8.21-6.21,13.29-6.21,4.24,0,7.93,1.74,11.05,5.22,3.12,3.48,4.8,8.65,5.04,15.49ZM300.22,138.67c0-4.81-.26-8.11-.78-9.91-.52-1.79-1.34-3.15-2.44-4.08-.63-.54-1.46-.81-2.51-.81-1.55,0-2.82.76-3.81,2.29-1.76,2.66-2.65,6.31-2.65,10.94v1.57h12.19Z"/>
    <path class="st0" d="M332.72,103.35v23.09c3.53-3.65,7.38-5.47,11.57-5.47,2.87,0,5.57.85,8.11,2.53,2.54,1.69,4.53,4.09,5.96,7.2,1.43,3.11,2.15,6.7,2.15,10.76,0,4.57-.91,8.73-2.73,12.46-1.82,3.74-4.26,6.58-7.31,8.54-3.05,1.96-6.53,2.94-10.45,2.94-2.27,0-4.29-.36-6.05-1.08-1.76-.72-3.5-1.88-5.2-3.5l-6.95,4.53h-1.52v-53.3c0-2.42-.11-3.92-.31-4.48-.3-.84-.77-1.46-1.41-1.86-.64-.4-1.73-.63-3.25-.69v-1.66h17.39ZM332.72,130.42v18.65c0,3.8.09,6.22.27,7.26.3,1.76,1.02,3.19,2.15,4.28,1.14,1.09,2.58,1.64,4.35,1.64,1.52,0,2.83-.43,3.92-1.3,1.09-.87,2-2.58,2.73-5.16.73-2.57,1.1-7.2,1.1-13.9s-.81-10.83-2.42-13.23c-1.17-1.73-2.73-2.6-4.71-2.6-2.57,0-5.04,1.45-7.4,4.35Z"/>
    <path class="st0" d="M403.06,141.68h-23c.27,5.56,1.75,9.95,4.44,13.18,2.06,2.48,4.54,3.72,7.44,3.72,1.79,0,3.42-.5,4.89-1.5,1.46-1,3.03-2.8,4.71-5.4l1.52.99c-2.27,4.63-4.78,7.91-7.53,9.84-2.75,1.93-5.93,2.89-9.55,2.89-6.22,0-10.92-2.39-14.12-7.17-2.57-3.86-3.86-8.64-3.86-14.35,0-6.99,1.89-12.56,5.67-16.7,3.78-4.14,8.21-6.21,13.29-6.21,4.24,0,7.93,1.74,11.05,5.22,3.12,3.48,4.8,8.65,5.04,15.49ZM392.04,138.67c0-4.81-.26-8.11-.78-9.91-.52-1.79-1.34-3.15-2.44-4.08-.63-.54-1.46-.81-2.51-.81-1.55,0-2.82.76-3.81,2.29-1.76,2.66-2.65,6.31-2.65,10.94v1.57h12.19Z"/>
    <path class="st0" d="M425.35,103.35v39.99l9.73-9.55c2-1.94,3.25-3.35,3.74-4.21.49-.87.74-1.7.74-2.51s-.33-1.48-.99-2.02c-.66-.54-1.94-.93-3.86-1.17v-1.66h18.78v1.66c-1.79.09-3.36.52-4.71,1.28s-3.97,3.06-7.89,6.88l-4.57,4.48,9.86,14.44c3.97,5.86,6.34,9.15,7.08,9.86,1.01,1.02,2.3,1.59,3.86,1.7v1.61h-21.65v-1.61c.96,0,1.65-.18,2.08-.54.43-.36.65-.75.65-1.17,0-.69-.63-1.96-1.88-3.81l-8.29-12.15-2.69,2.65v7.53c0,3.2.3,5.19.9,5.98.6.79,1.82,1.29,3.68,1.5v1.61h-21.65v-1.61c1.76-.18,3.02-.75,3.77-1.7.51-.66.76-2.58.76-5.78v-42.59c0-3.17-.29-5.14-.87-5.92-.58-.78-1.8-1.28-3.65-1.52v-1.66h17.08Z"/>
    <path class="st0" d="M482.5,157.95c-5.11,4.51-9.7,6.77-13.76,6.77-2.39,0-4.38-.78-5.96-2.35-1.59-1.57-2.38-3.53-2.38-5.9,0-3.2,1.37-6.07,4.12-8.63,2.75-2.56,8.74-5.96,17.98-10.2v-4.21c0-3.17-.17-5.16-.52-5.98-.34-.82-.99-1.54-1.95-2.15-.96-.61-2.03-.92-3.23-.92-1.94,0-3.54.43-4.8,1.3-.78.54-1.17,1.17-1.17,1.88,0,.63.42,1.41,1.26,2.33,1.14,1.29,1.7,2.53,1.7,3.72,0,1.46-.55,2.71-1.64,3.74-1.09,1.03-2.52,1.55-4.28,1.55-1.88,0-3.46-.57-4.73-1.7-1.27-1.14-1.91-2.47-1.91-3.99,0-2.15.85-4.21,2.56-6.16,1.7-1.96,4.08-3.46,7.13-4.51,3.05-1.05,6.22-1.57,9.5-1.57,3.97,0,7.12.85,9.44,2.53,2.31,1.69,3.82,3.52,4.51,5.49.42,1.26.63,4.14.63,8.65v16.27c0,1.91.07,3.12.22,3.61.15.49.37.86.67,1.1.3.24.64.36,1.03.36.78,0,1.57-.55,2.38-1.66l1.34,1.08c-1.5,2.21-3.04,3.82-4.64,4.82-1.6,1-3.41,1.5-5.45,1.5-2.39,0-4.26-.56-5.6-1.68s-2.17-2.82-2.47-5.09ZM482.5,154.68v-14.03c-3.62,2.12-6.31,4.39-8.07,6.81-1.17,1.61-1.75,3.24-1.75,4.89,0,1.37.49,2.59,1.48,3.63.75.81,1.79,1.21,3.14,1.21,1.49,0,3.23-.84,5.2-2.51Z"/>
    <path class="st0" d="M522.4,103.35v24.25c2.3-2.42,4.41-4.13,6.32-5.13,1.91-1,3.9-1.5,5.96-1.5,2.63,0,4.88.75,6.75,2.24,1.87,1.5,3.11,3.25,3.72,5.27.61,2.02.92,5.42.92,10.2v16.36c0,3.2.3,5.19.9,5.98.6.79,1.81,1.29,3.63,1.5v1.61h-21.25v-1.61c1.49-.21,2.62-.81,3.36-1.79.54-.78.81-2.67.81-5.69v-18.69c0-3.47-.13-5.64-.4-6.52-.27-.88-.72-1.57-1.37-2.06-.64-.49-1.37-.74-2.17-.74-1.2,0-2.36.41-3.5,1.23-1.14.82-2.36,2.26-3.68,4.33v22.46c0,2.99.22,4.86.67,5.6.57,1.02,1.73,1.64,3.5,1.88v1.61h-21.25v-1.61c1.76-.18,3.02-.75,3.77-1.7.51-.66.76-2.58.76-5.78v-42.59c0-3.17-.29-5.14-.87-5.92-.58-.78-1.8-1.28-3.65-1.52v-1.66h17.08Z"/>
    <path class="st0" d="M573.74,122.22v9.5c2.78-4.33,5.22-7.21,7.31-8.63,2.09-1.42,4.11-2.13,6.05-2.13,1.67,0,3.01.52,4.01,1.55,1,1.03,1.5,2.49,1.5,4.37,0,2-.49,3.56-1.46,4.66-.97,1.11-2.15,1.66-3.52,1.66-1.59,0-2.96-.51-4.12-1.52-1.17-1.01-1.85-1.58-2.06-1.7-.3-.18-.64-.27-1.03-.27-.87,0-1.69.33-2.47.99-1.23,1.02-2.15,2.47-2.78,4.35-.96,2.9-1.43,6.1-1.43,9.59v9.64l.04,2.51c0,1.7.1,2.8.31,3.27.36.81.89,1.4,1.59,1.77.7.38,1.89.61,3.56.69v1.61h-22.64v-1.61c1.82-.15,3.05-.65,3.7-1.5.64-.85.96-3.1.96-6.75v-23.18c0-2.39-.12-3.92-.36-4.57-.3-.84-.73-1.45-1.3-1.84-.57-.39-1.57-.66-3-.81v-1.66h17.13Z"/>
    <path class="st0" d="M620.22,157.95c-5.11,4.51-9.7,6.77-13.76,6.77-2.39,0-4.38-.78-5.96-2.35-1.59-1.57-2.38-3.53-2.38-5.9,0-3.2,1.37-6.07,4.12-8.63,2.75-2.56,8.74-5.96,17.98-10.2v-4.21c0-3.17-.17-5.16-.52-5.98-.34-.82-.99-1.54-1.95-2.15-.96-.61-2.03-.92-3.23-.92-1.94,0-3.54.43-4.8,1.3-.78.54-1.17,1.17-1.17,1.88,0,.63.42,1.41,1.26,2.33,1.14,1.29,1.7,2.53,1.7,3.72,0,1.46-.55,2.71-1.64,3.74-1.09,1.03-2.52,1.55-4.28,1.55-1.88,0-3.46-.57-4.73-1.7-1.27-1.14-1.91-2.47-1.91-3.99,0-2.15.85-4.21,2.56-6.16,1.7-1.96,4.08-3.46,7.13-4.51,3.05-1.05,6.22-1.57,9.5-1.57,3.97,0,7.12.85,9.44,2.53,2.31,1.69,3.82,3.52,4.51,5.49.42,1.26.63,4.14.63,8.65v16.27c0,1.91.07,3.12.22,3.61.15.49.37.86.67,1.1.3.24.64.36,1.03.36.78,0,1.57-.55,2.38-1.66l1.34,1.08c-1.5,2.21-3.04,3.82-4.64,4.82-1.6,1-3.41,1.5-5.45,1.5-2.39,0-4.26-.56-5.6-1.68s-2.17-2.82-2.47-5.09ZM620.22,154.68v-14.03c-3.62,2.12-6.31,4.39-8.07,6.81-1.17,1.61-1.75,3.24-1.75,4.89,0,1.37.49,2.59,1.48,3.63.75.81,1.79,1.21,3.14,1.21,1.49,0,3.23-.84,5.2-2.51Z"/>
    <path class="st0" d="M678.5,141.68h-23c.27,5.56,1.75,9.95,4.44,13.18,2.06,2.48,4.54,3.72,7.44,3.72,1.79,0,3.42-.5,4.89-1.5,1.46-1,3.03-2.8,4.71-5.4l1.52.99c-2.27,4.63-4.78,7.91-7.53,9.84-2.75,1.93-5.93,2.89-9.55,2.89-6.22,0-10.92-2.39-14.12-7.17-2.57-3.86-3.86-8.64-3.86-14.35,0-6.99,1.89-12.56,5.67-16.7,3.78-4.14,8.21-6.21,13.29-6.21,4.24,0,7.93,1.74,11.05,5.22,3.12,3.48,4.8,8.65,5.04,15.49ZM667.48,138.67c0-4.81-.26-8.11-.78-9.91-.52-1.79-1.34-3.15-2.44-4.08-.63-.54-1.46-.81-2.51-.81-1.55,0-2.82.76-3.81,2.29-1.76,2.66-2.65,6.31-2.65,10.94v1.57h12.19Z"/>
  </g>
  <g>
    <circle class="st0" cx="119.75" cy="137.69" r="27.55"/>
    <polygon class="st0" points="166.04 32.63 153.12 75.75 158.01 79.25 182.06 38.26 166.04 32.63"/>
    <polygon class="st0" points="225.26 90.78 182.87 105.99 179.15 101.31 218.74 75.09 225.26 90.78"/>
    <polygon class="st0" points="213.29 54.65 179.15 84 174 80.95 201.65 42.31 213.29 54.65"/>
    <path class="st0" d="M185.93,116c-23.61,0-42.76-19.15-42.76-42.76s.81-9.5,2.32-13.85h-58.07c-25.37.04-45.92,20.59-45.92,45.92v64.7c0,25.34,20.55,45.92,45.92,45.92h64.7c25.34,0,45.92-20.55,45.92-45.92v-55.79c-3.83,1.14-7.88,1.73-12.08,1.73l-.04.04ZM70.22,99.06c-6.3,0-11.42-5.12-11.42-11.42s5.12-11.42,11.42-11.42,11.42,5.12,11.42,11.42-5.12,11.42-11.42,11.42ZM119.75,173.49c-19.78,0-35.8-16.02-35.8-35.8s16.02-35.8,35.8-35.8,35.8,16.02,35.8,35.8-16.02,35.8-35.8,35.8h0Z"/>
  </g>
</svg>