<?xml version="1.0" encoding="UTF-8"?><svg id="Layer_1" xmlns="http://www.w3.org/2000/svg" viewBox="0 0 499 497.8"><defs><style>.cls-1{fill:#bf5f7d;}</style></defs><circle class="cls-1" cx="212.5" cy="285.3" r="74.8"/><polygon class="cls-1" points="338.2 0 303.1 117.1 316.4 126.6 381.7 15.3 338.2 0"/><polygon class="cls-1" points="499 157.9 383.9 199.2 373.8 186.5 481.3 115.3 499 157.9"/><polygon class="cls-1" points="466.5 59.8 373.8 139.5 359.8 131.2 434.9 26.3 466.5 59.8"/><path class="cls-1" d="M392.2,226.4c-64.1,0-116.1-52-116.1-116.1s2.2-25.8,6.3-37.6H124.7C55.8,72.8,0,128.6,0,197.4v175.7c0,68.8,55.8,124.7,124.7,124.7h175.7c68.8,0,124.7-55.8,124.7-124.7v-151.5c-10.4,3.1-21.4,4.7-32.8,4.7ZM78,180.4c-17.1,0-31-13.9-31-31s13.9-31,31-31,31,13.9,31,31-13.9,31-31,31ZM212.5,382.5c-53.7,0-97.2-43.5-97.2-97.2s43.5-97.2,97.2-97.2,97.2,43.5,97.2,97.2-43.5,97.2-97.2,97.2Z"/></svg>